<?xml version="1.0" encoding="utf-8"?>
<!-- Generator: Adobe Illustrator 16.0.0, SVG Export Plug-In . SVG Version: 6.00 Build 0)  -->
<!DOCTYPE svg PUBLIC "-//W3C//DTD SVG 1.1//EN" "http://www.w3.org/Graphics/SVG/1.1/DTD/svg11.dtd">
<svg version="1.1" id="Layer_1" xmlns="http://www.w3.org/2000/svg" xmlns:xlink="http://www.w3.org/1999/xlink" x="0px" y="0px"
	 width="192.935px" height="74.208px" viewBox="0 0 192.935 74.208" enable-background="new 0 0 192.935 74.208"
	 xml:space="preserve">
<path d="M41.904,15.766c-0.535,0.749-1.124,1.124-1.766,1.124c-11.024,1.606-16.537,6.69-16.537,15.252h9.793
	c1.712,0,2.569,0.856,2.569,2.569v36.928c0,1.711-0.856,2.568-2.569,2.568H2.569C0.856,74.207,0,73.35,0,71.639V39.688
	C0,14.535,12.309,1.316,36.927,0.032c0.642-0.107,1.204,0.053,1.686,0.481c0.482,0.428,0.83,0.963,1.043,1.605l2.569,11.72
	C42.439,14.589,42.332,15.231,41.904,15.766z M89.428,15.766c-0.43,0.749-1.018,1.124-1.767,1.124
	c-10.81,1.606-16.323,6.69-16.536,15.252h9.793c0.749,0,1.393,0.241,1.928,0.723c0.534,0.481,0.803,1.097,0.803,1.846v36.928
	c0,0.748-0.268,1.363-0.803,1.846c-0.537,0.481-1.179,0.724-1.928,0.724H50.252c-0.748,0-1.391-0.241-1.926-0.724
	c-0.535-0.481-0.803-1.098-0.803-1.846V39.688c0-25.151,12.36-38.371,37.086-39.654c0.643-0.107,1.205,0.053,1.687,0.481
	c0.481,0.428,0.829,0.963,1.044,1.605l2.568,11.72C90.123,14.589,89.962,15.231,89.428,15.766z"/>
<path d="M151.097,58.441c0.534-0.749,1.123-1.124,1.766-1.124c11.023-1.605,16.537-6.689,16.537-15.252h-9.793
	c-1.713,0-2.569-0.855-2.569-2.568V2.569c0-1.711,0.856-2.568,2.569-2.568h30.824c1.713,0,2.569,0.857,2.569,2.568v31.951
	c0,25.152-12.31,38.371-36.927,39.655c-0.643,0.107-1.204-0.053-1.686-0.481c-0.482-0.428-0.83-0.963-1.043-1.604l-2.57-11.72
	C150.562,59.619,150.668,58.977,151.097,58.441z M103.572,58.441c0.43-0.749,1.018-1.124,1.767-1.124
	c10.81-1.605,16.323-6.689,16.536-15.252h-9.793c-0.749,0-1.393-0.24-1.928-0.723c-0.534-0.481-0.803-1.097-0.803-1.846V2.569
	c0-0.748,0.268-1.363,0.803-1.846C110.691,0.242,111.333,0,112.082,0h30.666c0.748,0,1.391,0.241,1.926,0.724
	c0.535,0.481,0.803,1.098,0.803,1.846v31.951c0,25.151-12.36,38.37-37.086,39.654c-0.643,0.107-1.205-0.053-1.687-0.481
	c-0.481-0.428-0.829-0.963-1.044-1.604l-2.568-11.72C102.877,59.619,103.038,58.977,103.572,58.441z"/>
</svg>
