<svg width="90" height="75" viewBox="0 0 90 75" fill="none" xmlns="http://www.w3.org/2000/svg">
<path d="M41.9037 15.7661C41.3685 16.515 40.7798 16.8899 40.1376 16.8899C29.1132 18.4954 23.6009 23.5795 23.6009 32.1422H33.3945C35.107 32.1422 35.9633 32.9985 35.9633 34.711V71.6376C35.9633 73.3502 35.107 74.2064 33.3945 74.2064H2.56881C0.856273 74.2064 0 73.3502 0 71.6376V39.6881C0 14.5352 12.3089 1.31651 36.9266 0.0321102C37.5688 -0.0749235 38.1307 0.0856258 38.6124 0.513761C39.094 0.941895 39.4419 1.47706 39.656 2.11927L42.2248 13.8395C42.4388 14.5887 42.3318 15.2309 41.9037 15.7661ZM89.4266 15.7661C88.9985 16.515 88.4098 16.8899 87.6613 16.8899C76.8509 18.4954 71.3379 23.5795 71.1246 32.1422H80.9182C81.6669 32.1422 82.3097 32.383 82.8448 32.8647C83.38 33.3463 83.6484 33.9618 83.6484 34.711V71.6376C83.6484 72.3869 83.3805 73.0023 82.8448 73.484C82.3091 73.9656 81.6672 74.2064 80.9182 74.2064H50.2523C49.5036 74.2064 48.8609 73.9656 48.3257 73.484C47.7905 73.0023 47.5229 72.3869 47.5229 71.6376V39.6881C47.5229 14.5352 59.8853 1.31651 84.6101 0.0321102C85.2515 -0.0749235 85.8142 0.0856258 86.2959 0.513761C86.7775 0.941895 87.1256 1.47706 87.3395 2.11927L89.9083 13.8395C90.1223 14.5887 89.9618 15.2309 89.4266 15.7661Z" fill="white"/>
</svg>
