<svg width="32" height="32" viewBox="0 0 32 32" fill="none" xmlns="http://www.w3.org/2000/svg">
<g clip-path="url(#clip0)">
<path d="M15.529 31.059C6.966 31.059 0 24.092 0 15.529C0 6.966 6.966 0 15.529 0C24.092 0 31.058 6.966 31.058 15.529C31.059 24.092 24.092 31.059 15.529 31.059ZM15.529 1.774C7.944 1.774 1.774 7.945 1.774 15.529C1.774 23.113 7.944 29.283 15.529 29.283C23.113 29.283 29.283 23.113 29.283 15.529C29.283 7.945 23.113 1.774 15.529 1.774Z" fill="white"/>
<path d="M21.6516 16.4161H9.40558C8.91558 16.4161 8.51758 16.0201 8.51758 15.5291C8.51758 15.0391 8.91458 14.6411 9.40558 14.6411H21.6516C22.1416 14.6411 22.5386 15.0391 22.5386 15.5291C22.5386 16.0201 22.1426 16.4161 21.6516 16.4161Z" fill="white"/>
<path d="M15.5286 22.5391C15.0386 22.5391 14.6406 22.1421 14.6406 21.6521V9.40607C14.6406 8.91607 15.0386 8.51807 15.5286 8.51807C16.0186 8.51807 16.4156 8.91607 16.4156 9.40607V21.6521C16.4156 22.1431 16.0196 22.5391 15.5286 22.5391Z" fill="white"/>
</g>
<defs>
<clipPath id="clip0">
<rect width="31.059" height="31.059" fill="white"/>
</clipPath>
</defs>
</svg>
