<?xml version="1.0" encoding="utf-8"?>
<!-- Generator: Adobe Illustrator 23.0.2, SVG Export Plug-In . SVG Version: 6.00 Build 0)  -->
<svg version="1.1" id="Layer_1" xmlns="http://www.w3.org/2000/svg" xmlns:xlink="http://www.w3.org/1999/xlink" x="0px" y="0px"
	 viewBox="0 0 33 29" style="enable-background:new 0 0 33 29;" xml:space="preserve">
<style type="text/css">
	.st0{fill:#28A197;}
</style>
<path class="st0" d="M15.4,6c-0.2,0.3-0.4,0.4-0.6,0.4c-4,0.6-6.1,2.5-6.1,5.8h3.6c0.6,0,0.9,0.3,0.9,1v13.9c0,0.6-0.3,1-0.9,1H0.9
	c-0.6,0-0.9-0.3-0.9-1V15.1c0-9.5,4.5-14.5,13.5-15c0.2,0,0.4,0,0.6,0.2c0.2,0.2,0.3,0.4,0.4,0.6l0.9,4.4C15.6,5.6,15.5,5.8,15.4,6z
	 M32.8,6c-0.2,0.3-0.4,0.4-0.6,0.4c-4,0.6-6,2.5-6.1,5.8h3.6c0.3,0,0.5,0.1,0.7,0.3c0.2,0.2,0.3,0.4,0.3,0.7v13.9
	c0,0.3-0.1,0.5-0.3,0.7c-0.2,0.2-0.4,0.3-0.7,0.3H18.4c-0.3,0-0.5-0.1-0.7-0.3c-0.2-0.2-0.3-0.4-0.3-0.7V15.1
	c0-9.5,4.5-14.5,13.6-15c0.2,0,0.4,0,0.6,0.2c0.2,0.2,0.3,0.4,0.4,0.6L33,5.3C33,5.6,33,5.8,32.8,6z"/>
</svg>
