<?xml version="1.0" encoding="utf-8"?>
<!-- Generator: Adobe Illustrator 23.0.2, SVG Export Plug-In . SVG Version: 6.00 Build 0)  -->
<svg version="1.1" xmlns="http://www.w3.org/2000/svg" xmlns:xlink="http://www.w3.org/1999/xlink" x="0px" y="0px"
	 viewBox="0 0 512 512" style="enable-background:new 0 0 512 512;" xml:space="preserve">
<style type="text/css">
	.st0{display:none;}
	.st1{display:inline;}
</style>
<g id="Layer_1">
	<g class="st0">
		<g class="st1">
			<g>
				<path d="M442.4,181.9l-184-66.1c-1.6-0.6-3.4-0.6-5,0l-162.3,58l0,0c-0.6,0.2-1.1,0.5-1.6,0.8c-1.9,1.3-3.1,3.5-3.1,5.9v263.6
					c0,3,1.9,5.7,4.7,6.7L253.5,511c0.8,0.3,1.6,0.4,2.5,0.4c0.8,0,1.7-0.2,2.5-0.4l0,0l183-60.1c2.8-1,4.7-3.7,4.7-6.7l1-255.6
					C447.1,185.6,445.3,182.9,442.4,181.9z M246,486.1l-140-51V210.5l17,5.5l0.1,79.3c-0.2,4.6,1.7,6.2,4.5,7.2l77.2,25.9
					c0.8,0.3,1.6,0.4,2.5,0.4c1.4,0,2.9-0.4,4.1-1.3c1.9-1.3,3.1-3.5,3.1-5.9v-75.1l30.3,10L246,486.1L246,486.1z M192,239.3v63.2
					l-48-16.2v-63.2L192,239.3z M152,204l51.7-18.8l50.4,18l-50.5,18.3L152,204z M256,239.5l-25.7-8.6l56.8-21
					c2.8-1,4.7-3.7,4.7-6.7s-1.9-5.7-4.7-6.7L209.8,168c-1.6-0.6-3.4-0.6-5,0L130,195.6l-22.4-5.9L256,140l144.6,48.7L256,239.5z
					 M426,434.8l-160,52.8V257l160-53V434.8z"/>
			</g>
		</g>
		<g class="st1">
			<g>
				<path d="M156,370c-5.5,0-10,4.5-10,10s4.5,10,10,10s10-4.5,10-10S161.5,370,156,370z"/>
			</g>
		</g>
		<g class="st1">
			<g>
				<path d="M219.5,392.2l-22.2-8.3c-5.2-1.9-10.9,0.7-12.9,5.9c-1.9,5.2,0.7,10.9,5.9,12.9l22.2,8.3c5.2,1.9,10.9-0.7,12.9-5.9
					C227.3,399.9,224.7,394.1,219.5,392.2z"/>
			</g>
		</g>
		<g class="st1">
			<g>
				<path d="M219.5,434.9l-60-22.5c-5.2-1.9-10.9,0.7-12.9,5.9s0.7,10.9,5.9,12.9l60,22.5c1.2,0.4,2.3,0.6,3.5,0.6
					c4,0,7.9-2.5,9.4-6.5C227.3,442.6,224.7,436.9,219.5,434.9z"/>
			</g>
		</g>
	</g>
	<g>
		<circle cx="156" cy="380" r="10"/>
		<path d="M0.3,121.7c-0.8,3.4,0.2,7,2.6,9.5l60.5,60.5l-38.1,63.6c-1.6,2.6-1.9,5.8-0.8,8.6s3.3,5.1,6.2,6L86,288.2V442
			c0,4.2,2.6,7.9,6.5,9.4c33.8,12.7,159.5,59.8,160.2,60.1c2,0.7,4.2,0.8,6.4,0.1h0.1l180-60c4.1-1.4,6.8-5.2,6.8-9.5v-158l59-18.5
			c3.3-1,5.9-3.8,6.7-7.2c0.8-3.4-0.2-7-2.6-9.5l-59-58.9l58.9-58.9c2.5-2.5,3.5-6.1,2.6-9.5c-0.8-3.4-3.4-6.1-6.8-7.1l-82.2-25.4
			l-5,19.3l65.6,20.3l-49.9,49.9l-31.1-10.4l-4.3,16.8l-0.7,2.6l7.2,2.4L256,239.5L107.6,190l4-4l-7-6l-0.8-9.8l-25.1,8.4l-49.9-50
			l69.7-21.7l-1.7-20.4L7,114.5C3.7,115.5,1.1,118.3,0.3,121.7z M433.3,201.5l50,50L312.8,305l-40-50L433.3,201.5z M266,278.5
			l35.5,44.3c2.6,3.2,6.9,4.5,10.8,3.3L426,290.4v144.4l-160,53.3V278.5z M246,487.6l-140-52.5V294.9
			c110.1,36.5,104.8,35.4,107.8,35.4c3.4,0,6.7-1.8,8.6-4.9l23.6-39.3V487.6z M80.4,202L241,255.5l-31.6,52.7
			c-17.2-5.7-142.3-47.4-160.6-53.5L80.4,202z"/>
		<path d="M197.3,383.9c-5.2-1.9-10.9,0.7-12.9,5.9c-1.9,5.2,0.7,10.9,5.9,12.9l22.2,8.3c5.2,1.9,10.9-0.7,12.9-5.9
			c1.9-5.2-0.7-11-5.9-12.9L197.3,383.9z"/>
		<path d="M219.5,434.9l-60-22.5c-5.2-1.9-10.9,0.7-12.9,5.9c-2,5.2,0.7,10.9,5.9,12.9l60,22.5c1.2,0.4,2.3,0.6,3.5,0.6
			c4,0,7.9-2.5,9.4-6.5C227.3,442.6,224.7,436.9,219.5,434.9z"/>
	</g>
</g>
<g id="Layer_2">
	<g>
		<g>
			<path d="M436.4,75c-1.3-2.1-3.4-3.6-5.8-4.2L303.5,41.1c-2.4-0.6-4.9-0.1-7,1.2c-2.1,1.3-3.6,3.4-4.2,5.8l-16,69
				c-1.2,5,1.9,10,7,11.2c5,1.2,10-1.9,11.2-7l13.9-59.9l109,25.5L391.7,198c-1.2,5,1.9,10,7,11.2c0.7,0.2,1.4,0.2,2.1,0.2
				c4.2,0,8.1-2.9,9.1-7.2l27.8-120.2C438.2,79.7,437.7,77.1,436.4,75z"/>
		</g>
	</g>
	<g>
		<g>
			<path d="M268.2,124.4l-8.5-71.9c-0.3-2.5-1.5-4.7-3.5-6.2c-1.9-1.5-4.4-2.2-6.9-1.9l-156,18.4c-5.1,0.6-8.8,5.2-8.2,10.4
				l14.2,119.9c0.6,4.7,4.6,8.2,9.3,8.2c0.4,0,0.7,0,1.1-0.1c5.1-0.6,8.8-5.2,8.2-10.4L104.8,80.2L242.2,64l7.4,62.6
				c0.6,5.1,5.2,8.7,10.4,8.2C265.1,134.2,268.8,129.5,268.2,124.4z"/>
		</g>
	</g>
	<g>
		<g>
			<path d="M348.3,215.6l-24.9-103c-0.6-2.4-2.1-4.5-4.2-5.8c-2.1-1.3-4.6-1.7-7.1-1.1l-150.3,36.1c-5,1.2-8.1,6.2-6.9,11.2
				l16.2,70.6c1.2,5,6.2,8.1,11.2,6.9c5-1.2,8.1-6.2,6.9-11.2l-14-61.5l132.1-31.8l22.7,93.9c1,4.3,4.9,7.1,9.1,7.1
				c0.7,0,1.5-0.1,2.2-0.3C346.4,225.7,349.5,220.7,348.3,215.6z"/>
		</g>
	</g>
	<g>
		<g>
			<path d="M350.2,58l2.8-35.2c0.2-2.5-0.6-4.9-2.3-6.8c-1.6-1.9-3.9-3-6.4-3.2L190.2,2c-5.1-0.4-9.6,3.5-10,8.6L176.7,57
				c-0.4,5.1,3.5,9.6,8.6,10c5.1,0.4,9.6-3.5,10-8.6l2.8-37l135.5,9.6l-2.1,25.9c-0.3,4.4,2.5,8.3,6.5,9.5c0.7,0.2,1.4,0.4,2.2,0.4
				C345.4,67,349.8,63.1,350.2,58z"/>
		</g>
	</g>
</g>
</svg>
