<svg width="341" height="486" viewBox="0 0 341 486" fill="none" xmlns="http://www.w3.org/2000/svg">
<path d="M170.42 0C76.303 0 0 76.303 0 170.419C0 177.624 0.578 184.646 1.459 191.607C16.021 324.727 159.354 478.153 159.354 478.153C161.908 481.011 164.37 482.774 166.741 484.05L166.863 484.111L171.636 485.631L176.409 484.111L176.531 484.05C178.902 482.773 181.365 480.919 183.918 478.153C183.918 478.153 325.184 324.453 339.411 191.304C340.262 184.434 340.84 177.472 340.84 170.389C340.809 76.303 264.537 0 170.42 0ZM170.42 280.04C109.986 280.04 60.8 230.854 60.8 170.42C60.8 109.986 109.986 60.8 170.42 60.8C230.854 60.8 280.01 109.986 280.01 170.42C280.01 230.854 230.854 280.04 170.42 280.04Z" fill="#B10E1E"/>
</svg>
