<svg width="21" height="19" viewBox="0 0 21 19" fill="none" xmlns="http://www.w3.org/2000/svg">
<g clip-path="url(#clip0)">
<path d="M19.6452 0H12.1914C11.6768 0 11.2596 0.38668 11.2596 0.863647C11.2596 1.34061 11.6768 1.72729 12.1914 1.72729H17.3959L7.80563 10.6166C7.44174 10.9539 7.44174 11.5007 7.80563 11.838C7.98751 12.0066 8.22596 12.0909 8.46441 12.0909C8.70286 12.0909 8.94135 12.0066 9.12328 11.8379L18.7135 2.94864V7.77274C18.7135 8.24971 19.1307 8.63639 19.6453 8.63639C20.1599 8.63639 20.577 8.24971 20.577 7.77274V0.863647C20.577 0.38668 20.1598 0 19.6452 0Z" fill="#0478FF"/>
<path d="M15.9181 8.63639C15.4035 8.63639 14.9864 9.02307 14.9864 9.50004V17.2728H1.94207V5.18185H10.3277C10.8423 5.18185 11.2595 4.79517 11.2595 4.3182C11.2595 3.84123 10.8423 3.45459 10.3277 3.45459H1.01036C0.495783 3.45459 0.0786133 3.84127 0.0786133 4.31824V18.1364C0.0786133 18.6134 0.495783 19 1.01036 19H15.9181C16.4327 19 16.8499 18.6134 16.8499 18.1364V9.50004C16.8499 9.02307 16.4327 8.63639 15.9181 8.63639Z" fill="#0478FF"/>
</g>
<defs>
<clipPath id="clip0">
<rect width="20.4982" height="19" fill="white" transform="translate(0.0786133)"/>
</clipPath>
</defs>
</svg>
