<?xml version="1.0" encoding="utf-8"?>
<!-- Generator: Adobe Illustrator 23.0.2, SVG Export Plug-In . SVG Version: 6.00 Build 0)  -->
<svg version="1.1" id="Layer_1" xmlns="http://www.w3.org/2000/svg" xmlns:xlink="http://www.w3.org/1999/xlink" x="0px" y="0px"
	 viewBox="0 0 475.9 489.7" style="enable-background:new 0 0 475.9 489.7;" xml:space="preserve">
<style type="text/css">
	.st0{fill:#FFFFFF;}
</style>
<g>
	<g>
		<path class="st0" d="M475.9,477.2c0,0,0-225.8,0-301c0-3.1-3.9-7-7.7-9.9l-78.7-57.1V46.1c0-6.2-5.2-10.4-10.4-10.4h-89.7
			L243.6,2.4c-3.1-2.1-8.3-2.1-11.5,0l-45.7,33.3H96.8c-6.2,0-10.4,5.2-10.4,10.4v62.4L6.7,166.4C2,169.3-1,173.1-1,176.3
			c0,75.7,0,303,0,303c0,5.9,4.7,10,9.6,10.4c0.3,0,0.5,0,0.8,0h456C472.1,489.6,475.9,484.4,475.9,477.2z M456.1,194.9v263.6
			L284,320.7L456.1,194.9L456.1,194.9z M448.4,176.6l-58.9,42.9v-86.2L448.4,176.6L448.4,176.6z M237.5,22.1l18.3,13.5h-36.7
			L237.5,22.1L237.5,22.1z M368.6,56.5v178.2l-131.2,95.6l-131.2-95.6V56.5C106.3,56.5,368.6,56.5,368.6,56.5z M18.9,194.9
			L191,320.7L18.9,459.3V194.9z M86.5,220.3l-60.4-44l60.4-43.9V220.3z M37.6,469.8l170.1-136.9l23.5,17.2c4.5,3.4,7.9,3.4,12.5,0
			l23.5-17.2l171.1,136.9H37.6L37.6,469.8z"/>
		<rect x="167.8" y="107.5" class="st0" width="140.5" height="19.8"/>
		<rect x="167.8" y="171" class="st0" width="140.5" height="19.8"/>
		<rect x="167.8" y="234.5" class="st0" width="140.5" height="19.8"/>
	</g>
</g>
</svg>
