<?xml version="1.0" encoding="utf-8"?>
<!-- Generator: Adobe Illustrator 16.0.0, SVG Export Plug-In . SVG Version: 6.00 Build 0)  -->
<!DOCTYPE svg PUBLIC "-//W3C//DTD SVG 1.1//EN" "http://www.w3.org/Graphics/SVG/1.1/DTD/svg11.dtd">
<svg version="1.1" id="Layer_1" xmlns="http://www.w3.org/2000/svg" xmlns:xlink="http://www.w3.org/1999/xlink" x="0px" y="0px"
	 width="89.937px" height="74.208px" viewBox="102.999 0 89.937 74.208" enable-background="new 102.999 0 89.937 74.208"
	 xml:space="preserve">
<path fill="#006DFF" d="M151.097,58.441c0.533-0.749,1.123-1.124,1.766-1.124c11.023-1.605,16.537-6.689,16.537-15.252h-9.793
	c-1.713,0-2.568-0.855-2.568-2.568V2.569c0-1.711,0.855-2.568,2.568-2.568h30.824c1.713,0,2.568,0.857,2.568,2.568V34.52
	c0,25.152-12.311,38.371-36.928,39.654c-0.643,0.107-1.203-0.053-1.686-0.48s-0.83-0.963-1.043-1.604l-2.57-11.721
	C150.562,59.62,150.668,58.977,151.097,58.441z M103.572,58.441c0.431-0.749,1.019-1.124,1.768-1.124
	c10.811-1.605,16.323-6.689,16.536-15.252h-9.793c-0.749,0-1.394-0.24-1.929-0.723c-0.533-0.481-0.803-1.098-0.803-1.846V2.569
	c0-0.748,0.269-1.363,0.803-1.846C110.691,0.242,111.333,0,112.082,0h30.666c0.748,0,1.392,0.241,1.926,0.724
	c0.535,0.481,0.804,1.098,0.804,1.846v31.951c0,25.151-12.359,38.37-37.086,39.653c-0.644,0.107-1.205-0.053-1.688-0.48
	c-0.48-0.428-0.829-0.963-1.044-1.604l-2.568-11.721C102.877,59.62,103.038,58.977,103.572,58.441z"/>
</svg>
