<?xml version="1.0" encoding="utf-8"?>
<!-- Generator: Adobe Illustrator 23.0.2, SVG Export Plug-In . SVG Version: 6.00 Build 0)  -->
<svg version="1.1" id="Layer_1" xmlns="http://www.w3.org/2000/svg" xmlns:xlink="http://www.w3.org/1999/xlink" x="0px" y="0px"
	 viewBox="0 0 89.9 74.2" style="enable-background:new 0 0 89.9 74.2;" xml:space="preserve">
<style type="text/css">
	.st0{fill:#28A197;}
</style>
<path class="st0" d="M48.1,58.4c0.5-0.7,1.1-1.1,1.8-1.1c11-1.6,16.5-6.7,16.5-15.3h-9.8c-1.7,0-2.6-0.9-2.6-2.6V2.6
	C54,0.9,54.9,0,56.6,0h30.8C89.1,0,90,0.9,90,2.6v32c0,25.2-12.3,38.4-36.9,39.7c-0.6,0.1-1.2-0.1-1.7-0.5s-0.8-1-1-1.6l-2.6-11.7
	C47.6,59.6,47.7,59,48.1,58.4z M0.6,58.4c0.4-0.7,1-1.1,1.8-1.1c10.8-1.6,16.3-6.7,16.5-15.3H9.1c-0.7,0-1.4-0.2-1.9-0.7
	c-0.5-0.5-0.8-1.1-0.8-1.8V2.6c0-0.7,0.3-1.4,0.8-1.8C7.7,0.2,8.3,0,9.1,0h30.7c0.7,0,1.4,0.2,1.9,0.7c0.5,0.5,0.8,1.1,0.8,1.8v32
	c0,25.2-12.4,38.4-37.1,39.7c-0.6,0.1-1.2-0.1-1.7-0.5c-0.5-0.4-0.8-1-1-1.6L0.1,60.4C-0.1,59.6,0,59,0.6,58.4z"/>
</svg>
