<?xml version="1.0" encoding="utf-8"?>
<!-- Generator: Adobe Illustrator 23.0.2, SVG Export Plug-In . SVG Version: 6.00 Build 0)  -->
<svg version="1.1" id="Layer_1" xmlns="http://www.w3.org/2000/svg" xmlns:xlink="http://www.w3.org/1999/xlink" x="0px" y="0px"
	 viewBox="0 0 26 26" style="enable-background:new 0 0 26 26;" xml:space="preserve">
<path d="M25,7.9c-0.7-1.6-1.6-3-2.8-4.1S19.6,1.7,18.1,1c-1.6-0.7-3.3-1-5.1-1c-1.2,0-2.3,0.2-3.5,0.5C8.4,0.8,7.4,1.2,6.4,1.8
	S4.6,3,3.8,3.8s-1.5,1.7-2,2.6c-0.6,1-1,2-1.3,3.1C0.2,10.7,0,11.8,0,13s0.2,2.3,0.5,3.5c0.3,1.1,0.7,2.1,1.3,3.1
	c0.6,1,1.2,1.8,2,2.6c0.8,0.8,1.7,1.5,2.6,2c1,0.6,2,1,3.1,1.3c1.1,0.3,2.3,0.5,3.5,0.5s2.3-0.2,3.5-0.5c1.1-0.3,2.1-0.7,3.1-1.3
	c1-0.6,1.8-1.2,2.6-2c0.8-0.8,1.5-1.7,2-2.6c0.6-1,1-2,1.3-3.1S26,14.2,26,13C26,11.2,25.7,9.5,25,7.9z M12.6,9
	c-0.1,0.1-0.2,0.2-0.3,0.2c-1.8,0.3-2.7,1.1-2.7,2.5h1.6c0.3,0,0.4,0.1,0.4,0.4v6c0,0.3-0.1,0.4-0.4,0.4h-5c-0.3,0-0.4-0.1-0.4-0.4
	v-5.2c0-4.1,2-6.2,6-6.4c0.1,0,0.2,0,0.3,0.1c0.1,0.1,0.1,0.2,0.2,0.3l0.4,1.9C12.7,8.8,12.7,8.9,12.6,9z M20.3,9
	c-0.1,0.1-0.2,0.2-0.3,0.2c-1.8,0.3-2.6,1.1-2.7,2.5h1.6c0.1,0,0.2,0,0.3,0.1c0.1,0.1,0.1,0.2,0.1,0.3v6c0,0.1,0,0.2-0.1,0.3
	c-0.1,0.1-0.2,0.1-0.3,0.1h-5c-0.1,0-0.2,0-0.3-0.1c-0.1-0.1-0.1-0.2-0.1-0.3v-5.2c0-4.1,2-6.2,6-6.4c0.1,0,0.2,0,0.3,0.1
	c0.1,0.1,0.1,0.2,0.2,0.3l0.4,1.9C20.4,8.8,20.4,8.9,20.3,9z"/>
</svg>
