<?xml version="1.0" encoding="utf-8"?>
<!-- Generator: Adobe Illustrator 23.0.2, SVG Export Plug-In . SVG Version: 6.00 Build 0)  -->
<svg version="1.1" id="Layer_1" xmlns="http://www.w3.org/2000/svg" xmlns:xlink="http://www.w3.org/1999/xlink" x="0px" y="0px"
	 viewBox="0 0 90 74.2" style="enable-background:new 0 0 90 74.2;" xml:space="preserve">
<style type="text/css">
	.st0{fill:#28A197;}
</style>
<path class="st0" d="M41.9,15.8c-0.5,0.7-1.1,1.1-1.8,1.1c-11,1.6-16.5,6.7-16.5,15.3h9.8c1.7,0,2.6,0.9,2.6,2.6v36.9
	c0,1.7-0.9,2.6-2.6,2.6H2.6c-1.7,0-2.6-0.9-2.6-2.6v-32C0,14.5,12.3,1.3,36.9,0c0.6-0.1,1.2,0.1,1.7,0.5c0.5,0.4,0.8,1,1,1.6
	l2.6,11.7C42.4,14.6,42.3,15.2,41.9,15.8z M89.4,15.8c-0.4,0.7-1,1.1-1.8,1.1c-10.8,1.6-16.3,6.7-16.5,15.3h9.8
	c0.7,0,1.4,0.2,1.9,0.7c0.5,0.5,0.8,1.1,0.8,1.8v36.9c0,0.7-0.3,1.4-0.8,1.8c-0.5,0.5-1.2,0.7-1.9,0.7H50.3c-0.7,0-1.4-0.2-1.9-0.7
	c-0.5-0.5-0.8-1.1-0.8-1.8v-32C47.5,14.5,59.9,1.3,84.6,0c0.6-0.1,1.2,0.1,1.7,0.5c0.5,0.4,0.8,1,1,1.6l2.6,11.7
	C90.1,14.6,90,15.2,89.4,15.8z"/>
</svg>
