<?xml version="1.0" encoding="utf-8"?>
<!-- Generator: Adobe Illustrator 16.0.0, SVG Export Plug-In . SVG Version: 6.00 Build 0)  -->
<!DOCTYPE svg PUBLIC "-//W3C//DTD SVG 1.1//EN" "http://www.w3.org/Graphics/SVG/1.1/DTD/svg11.dtd">
<svg version="1.1" id="Layer_1" xmlns="http://www.w3.org/2000/svg" xmlns:xlink="http://www.w3.org/1999/xlink" x="0px" y="0px"
	 width="90px" height="75px" viewBox="0 0 90 75" enable-background="new 0 0 90 75" xml:space="preserve">
<path d="M41.904,15.766c-0.535,0.749-1.124,1.124-1.766,1.124c-11.024,1.606-16.537,6.69-16.537,15.252h9.793
	c1.712,0,2.569,0.856,2.569,2.569v36.927c0,1.712-0.856,2.569-2.569,2.569H2.569C0.856,74.207,0,73.35,0,71.638v-31.95
	C0,14.535,12.309,1.316,36.927,0.032c0.642-0.107,1.204,0.053,1.686,0.481c0.482,0.428,0.83,0.963,1.043,1.605l2.569,11.72
	C42.439,14.589,42.332,15.231,41.904,15.766z M89.427,15.766c-0.429,0.749-1.017,1.124-1.766,1.124
	c-10.81,1.606-16.323,6.69-16.536,15.252h9.793c0.749,0,1.392,0.241,1.927,0.723c0.535,0.481,0.804,1.097,0.804,1.846v36.927
	c0,0.749-0.268,1.364-0.804,1.847c-0.536,0.481-1.178,0.723-1.927,0.723H50.252c-0.748,0-1.391-0.241-1.926-0.723
	c-0.535-0.482-0.803-1.098-0.803-1.847v-31.95c0-25.152,12.361-38.371,37.086-39.655c0.643-0.107,1.205,0.053,1.687,0.481
	s0.829,0.963,1.044,1.605l2.568,11.72C90.123,14.589,89.962,15.231,89.427,15.766z"/>
</svg>
