<?xml version="1.0" encoding="utf-8"?>
<!-- Generator: Adobe Illustrator 16.0.0, SVG Export Plug-In . SVG Version: 6.00 Build 0)  -->
<!DOCTYPE svg PUBLIC "-//W3C//DTD SVG 1.1//EN" "http://www.w3.org/Graphics/SVG/1.1/DTD/svg11.dtd">
<svg version="1.1" id="Capa_1" xmlns="http://www.w3.org/2000/svg" xmlns:xlink="http://www.w3.org/1999/xlink" x="0px" y="0px"
	 width="590.879px" height="841.891px" viewBox="0 0 590.879 841.891" enable-background="new 0 0 590.879 841.891"
	 xml:space="preserve">
<g>
	<g>
		<g>
			<path fill="#006DFF" d="M295.44,0C132.279,0,0,132.279,0,295.438c0,12.491,1.002,24.664,2.529,36.731
				c25.245,230.776,273.727,496.756,273.727,496.756c4.427,4.954,8.695,8.011,12.806,10.223l0.212,0.105l8.274,2.636l8.274-2.636
				l0.211-0.105c4.11-2.214,8.381-5.428,12.807-10.223c0,0,244.897-266.454,269.562-497.28c1.476-11.91,2.478-23.979,2.478-36.259
				C590.825,132.279,458.601,0,295.44,0z M295.44,485.477c-104.769,0-190.037-85.269-190.037-190.037
				c0-104.768,85.269-190.037,190.037-190.037s189.985,85.269,189.985,190.037C485.425,400.208,400.208,485.477,295.44,485.477z"/>
		</g>
	</g>
</g>
</svg>
