<?xml version="1.0" encoding="utf-8"?>
<!-- Generator: Adobe Illustrator 23.0.2, SVG Export Plug-In . SVG Version: 6.00 Build 0)  -->
<svg version="1.1" id="Layer_1" xmlns="http://www.w3.org/2000/svg" xmlns:xlink="http://www.w3.org/1999/xlink" x="0px" y="0px"
	 viewBox="0 0 21 19" style="enable-background:new 0 0 21 19;" xml:space="preserve">
<style type="text/css">
	.st0{clip-path:url(#SVGID_2_);}
	.st1{fill:#28A197;}
</style>
<g>
	<g>
		<g>
			<defs>
				<rect id="SVGID_1_" x="0.1" width="20.5" height="19"/>
			</defs>
			<clipPath id="SVGID_2_">
				<use xlink:href="#SVGID_1_"  style="overflow:visible;"/>
			</clipPath>
			<g class="st0">
				<path class="st1" d="M19.6,0h-7.5c-0.5,0-0.9,0.4-0.9,0.9s0.4,0.9,0.9,0.9h5.2l-9.6,8.9c-0.4,0.3-0.4,0.9,0,1.2
					C8,12,8.2,12.1,8.5,12.1s0.5-0.1,0.7-0.3l9.6-8.9v4.8c0,0.5,0.4,0.9,0.9,0.9c0.5,0,0.9-0.4,0.9-0.9V0.9C20.6,0.4,20.2,0,19.6,0z
					"/>
				<path class="st1" d="M15.9,8.6C15.4,8.6,15,9,15,9.5v7.8h-13V5.2h8.4c0.5,0,0.9-0.4,0.9-0.9c0-0.5-0.4-0.9-0.9-0.9H1
					c-0.5,0-0.9,0.4-0.9,0.9v13.8C0.1,18.6,0.5,19,1,19h14.9c0.5,0,0.9-0.4,0.9-0.9V9.5C16.9,9,16.4,8.6,15.9,8.6z"/>
			</g>
		</g>
	</g>
</g>
</svg>
