<svg width="229" height="194" viewBox="0 0 229 194" fill="none" xmlns="http://www.w3.org/2000/svg">
<path d="M181.128 196.665L145.678 164.332C138.647 157.893 138.86 147.228 146.169 140.564L164.023 124.275C163.401 123.245 162.751 122.18 162.062 121.06C155.814 110.774 147.25 96.6953 130.996 81.8804C114.709 67.0217 99.2506 59.2026 87.9664 53.4856C86.771 52.8823 85.6184 52.3043 84.5238 51.7335L72.5565 62.6658L66.6569 68.0406C59.3376 74.7151 47.6493 74.8992 40.5971 68.4743L5.14353 36.1422C-1.89878 29.7173 -1.68513 19.0478 5.63412 12.3732L15.6813 3.26095L15.9523 3.50996C20.2265 0.454486 25.1561 -2.09876 30.4721 -3.99881C35.5323 -5.75029 40.361 -6.84076 45.1996 -7.33938C84.0009 -11.6086 119.462 4.56494 167.583 48.4579C234.094 109.131 229.07 158.026 228.824 160.135C228.222 164.729 227.019 169.132 225.114 173.607C223.055 178.414 220.26 182.907 216.918 186.803L217.112 187.003L207.202 196.234C199.884 202.895 188.191 203.086 181.128 196.665Z" fill="#2C2E2E"/>
</svg>
