<?xml version="1.0" encoding="utf-8"?>
<!-- Generator: Adobe Illustrator 16.0.0, SVG Export Plug-In . SVG Version: 6.00 Build 0)  -->
<!DOCTYPE svg PUBLIC "-//W3C//DTD SVG 1.1//EN" "http://www.w3.org/Graphics/SVG/1.1/DTD/svg11.dtd">
<svg version="1.1" id="Layer_1" xmlns="http://www.w3.org/2000/svg" xmlns:xlink="http://www.w3.org/1999/xlink" x="0px" y="0px"
	 width="33px" height="29px" viewBox="0 0 33 29" enable-background="new 0 0 33 29" xml:space="preserve">
<path fill="#FFB007" d="M15.365,6.028c-0.196,0.283-0.412,0.424-0.647,0.424c-4.042,0.606-6.063,2.526-6.063,5.759h3.591
	c0.628,0,0.942,0.323,0.942,0.97v13.943c0,0.646-0.314,0.97-0.942,0.97H0.942C0.314,28.095,0,27.771,0,27.125V15.061
	C0,5.563,4.513,0.572,13.54,0.087c0.236-0.041,0.442,0.02,0.618,0.182c0.177,0.162,0.304,0.364,0.383,0.606l0.942,4.425
	C15.561,5.584,15.521,5.826,15.365,6.028z M32.789,6.028c-0.156,0.283-0.372,0.424-0.646,0.424
	c-3.964,0.606-5.985,2.526-6.063,5.759h3.591c0.274,0,0.51,0.091,0.707,0.272c0.195,0.182,0.294,0.415,0.294,0.697v13.943
	c0,0.283-0.099,0.516-0.294,0.697c-0.197,0.182-0.432,0.272-0.707,0.272H18.426c-0.274,0-0.51-0.091-0.707-0.272
	c-0.195-0.182-0.293-0.414-0.293-0.697V15.061c0-9.497,4.532-14.488,13.598-14.973c0.235-0.041,0.441,0.02,0.618,0.182
	s0.305,0.364,0.383,0.606l0.942,4.425C33.045,5.584,32.986,5.826,32.789,6.028z"/>
</svg>
