<?xml version="1.0" encoding="utf-8"?>
<!-- Generator: Adobe Illustrator 23.0.2, SVG Export Plug-In . SVG Version: 6.00 Build 0)  -->
<svg version="1.1" id="Capa_1" xmlns="http://www.w3.org/2000/svg" xmlns:xlink="http://www.w3.org/1999/xlink" x="0px" y="0px"
	 viewBox="0 0 512 448.6" style="enable-background:new 0 0 512 448.6;" xml:space="preserve">
<style type="text/css">
	.st0{fill:#C42B3A;}
</style>
<g>
	<g>
		<path class="st0" d="M474.6,44.4C449.4,15.8,414.4,0,376,0c-53.9,0-88.1,32.2-107.3,59.2c-5,7-9.2,14-12.7,20.7
			c-3.5-6.6-7.8-13.7-12.7-20.7C224.1,32.2,189.9,0,136,0C97.6,0,62.6,15.8,37.4,44.4C13.3,71.8,0,108.4,0,147.5
			c0,42.6,16.6,82.2,52.3,124.7c31.9,38,77.8,77.1,131,122.4c19.8,16.9,40.3,34.3,62.1,53.4l0.7,0.6c2.8,2.5,6.4,3.7,9.9,3.7
			c3.5,0,7.1-1.2,9.9-3.7l0.7-0.6c21.8-19.1,42.3-36.5,62.1-53.4c53.2-45.3,99.1-84.4,131-122.4c35.7-42.5,52.3-82.1,52.3-124.7
			C512,108.4,498.7,71.8,474.6,44.4z M309.2,371.8c-17.1,14.6-34.7,29.5-53.2,45.6c-18.5-16.1-36.1-31.1-53.2-45.6
			C98.7,283.1,30,224.5,30,147.5c0-31.8,10.6-61.4,29.9-83.2C79.3,42.2,106.4,30,136,30c41.1,0,67.7,25.3,82.8,46.6
			c13.5,19.1,20.6,38.3,23,45.7c2,6.2,7.8,10.4,14.3,10.4s12.3-4.2,14.3-10.4c2.4-7.4,9.5-26.6,23-45.7C308.3,55.3,334.9,30,376,30
			c29.6,0,56.7,12.2,76.1,34.3c19.3,21.9,29.9,51.4,29.9,83.2C482,224.5,413.3,283.1,309.2,371.8z"/>
	</g>
</g>
</svg>
